:SAMPLES-PER-SECOND 30
:FULLY-SPECIFIED
:DEGREES
191
root  -3.37666 40.8953 0.352588 -20.911 -88.5069 19.6609
RightUpLeg  6.34936 -2.28939 -1.63689
RightLeg  -1.08413 -20.515 0.689011
RightFoot  -2.31042 -0.279116 3.36089
RightToes  -3.13006e-008 1.75238e-005 3.56266e-009
Spine  -7.14781 -3.25599 -4.4319
Spine1  14.8611 -3.58515 1.82799
HEad  -17.4213 -1.5652 -0.349048
LeftShoulder1  2.00046 -3.17117 -23.7294
LeftArm  -32.8647 7.07683 -51.6875
LeftForeArm  109.544 -67.7541 -149.186
LeftHand  -0.087857 -0.436319 1.80694
RightShoulder  1.97252 3.34758 22.6022
RightArm  -12.2407 -21.6692 41.7706
RightForeArm  114.221 77.8117 121.55
RightHand  -0.774699 7.68955 -7.21947
LeftUpLeg  5.39194 1.49578 2.36723
LeftLeg  -1.76786 10.7731 -0.745872
LeftFoot  -1.30742 0.299599 -3.31612
LeftToes  4.76866e-008 1.46233e-008 1.30548e-009
192
root  -3.36491 40.8951 0.39304 -25.4312 -88.78 24.3502
RightUpLeg  6.11899 -2.2928 -1.69519
RightLeg  -1.09461 -20.1927 0.71008
RightFoot  -2.24627 -0.281318 3.38845
RightToes  -3.13006e-008 1.75238e-005 3.56266e-009
Spine  -7.28247 -3.26681 -4.35689
Spine1  14.7666 -3.62665 1.92179
HEad  -17.0937 -1.65061 -0.505283
LeftShoulder1  2.00672 -3.17598 -23.8058
LeftArm  -32.7566 8.40465 -51.5499
LeftForeArm  110.192 -67.392 -149.784
LeftHand  -0.10227 -0.687248 2.03368
RightShoulder  2.00427 3.46507 22.5696
RightArm  -12.8738 -21.4251 41.7145
RightForeArm  114.988 77.7163 122.298
RightHand  -0.741117 7.52574 -7.00355
LeftUpLeg  5.18663 1.38804 2.26605
LeftLeg  -1.6825 11.1797 -0.673699
LeftFoot  -1.36391 0.295896 -3.28467
LeftToes  4.76866e-008 1.46233e-008 1.30548e-009
193
root  -3.37977 40.8951 0.44036 -49.7261 -89.2519 48.6001
RightUpLeg  6.03588 -2.29548 -1.85449
RightLeg  -0.884951 -19.554 0.524839
RightFoot  -2.27133 -0.280916 3.37528
RightToes  -3.13006e-008 1.75238e-005 3.56266e-009
Spine  -7.52654 -3.15049 -3.88245
Spine1  14.9702 -3.33935 1.25316
HEad  -16.8149 -2.07019 -0.304268
LeftShoulder1  1.94519 -3.04663 -23.4372
LeftArm  -33.0446 9.36989 -51.8035
LeftForeArm  110.278 -67.1298 -150.168
LeftHand  -0.0756552 -0.325128 1.5886
RightShoulder  2.10285 3.7091 22.9805
RightArm  -13.6841 -21.0717 41.1776
RightForeArm  114.862 77.6848 122.428
RightHand  -0.704702 7.5084 -6.68779
LeftUpLeg  5.45795 1.34562 2.09918
LeftLeg  -1.91244 11.8682 -0.774912
LeftFoot  -1.38452 0.309712 -3.51549
LeftToes  4.76866e-008 1.46233e-008 1.30548e-009
194
root  -3.38797 40.8952 0.4833 -77.8017 -89.3902 76.6052
RightUpLeg  5.97247 -2.27449 -1.93881
RightLeg  -0.634678 -19.1205 0.325618
RightFoot  -2.32476 -0.293691 3.56106
RightToes  -3.13006e-008 1.75238e-005 3.56266e-009
Spine  -7.76179 -3.119 -3.88997
Spine1  15.2184 -3.30167 1.25339
HEad  -16.931 -3.2979 -0.728997
LeftShoulder1  1.83734 -2.72937 -23.2079
LeftArm  -33.0766 9.90492 -51.9585
LeftForeArm  110.85 -67.1204 -150.234
LeftHand  -0.0883353 -0.288427 1.85366
RightShoulder  2.27478 4.05541 23.9772
RightArm  -15.9529 -20.1288 39.4987
RightForeArm  115.682 77.9622 121.146
RightHand  -0.484821 8.0604 -4.54995
LeftUpLeg  5.67994 1.28755 1.96364
LeftLeg  -2.08091 12.3555 -0.810929
LeftFoot  -1.38562 0.30728 -3.49103
LeftToes  4.76866e-008 1.46233e-008 1.30548e-009
195
root  -3.3726 40.8955 0.519408 -100.14 -89.274 98.8345
RightUpLeg  5.99357 -2.30392 -2.10225
RightLeg  -0.529835 -18.8026 0.153037
RightFoot  -2.32736 -0.302541 3.67525
RightToes  -3.13006e-008 1.75238e-005 3.56266e-009
Spine  -7.50581 -2.94591 -4.76893
Spine1  14.9687 -3.4129 2.48262
HEad  -17.4114 -5.32172 -1.90557
LeftShoulder1  1.8875 -2.88123 -23.2974
LeftArm  -33.6856 10.3632 -51.8585
LeftForeArm  110.116 -67.1867 -150.071
LeftHand  -0.0758123 -0.416551 1.5723
RightShoulder  2.37689 4.1582 24.9557
RightArm  -20.9477 -18.7723 36.8331
RightForeArm  117.147 78.0653 121.001
RightHand  0.0332051 8.83581 -0.115443
LeftUpLeg  5.90046 1.25521 1.79366
LeftLeg  -2.26851 12.7027 -0.945323
LeftFoot  -1.32788 0.30317 -3.43837
LeftToes  4.76866e-008 1.46233e-008 1.30548e-009
196
root  -3.33967 40.8963 0.568378 -108.004 -89.1193 106.55
RightUpLeg  5.94141 -2.4307 -2.32421
RightLeg  -0.231228 -18.4928 0.0118186
RightFoot  -2.37563 -0.306783 3.70205
RightToes  -3.13006e-008 1.75238e-005 3.56266e-009
Spine  -6.98483 -2.9364 -5.82208
Spine1  14.6101 -3.7674 3.98388
HEad  -17.8352 -8.97281 -3.53378
LeftShoulder1  1.86469 -2.79678 -23.3308
LeftArm  -34.4098 11.1027 -52.0209
LeftForeArm  110.069 -67.0207 -150.301
LeftHand  -0.0682821 -0.456436 1.40981
RightShoulder  2.38736 4.16802 25.0581
RightArm  -27.5947 -16.5482 34.4155
RightForeArm  113.13 78.1503 119.25
RightHand  0.0641553 8.52329 0.131483
LeftUpLeg  6.09648 1.19801 1.5968
LeftLeg  -2.42238 12.8855 -1.06361
LeftFoot  -1.25838 0.288683 -3.22239
LeftToes  4.76866e-008 1.46233e-008 1.30548e-009
197
root  -3.30095 40.8998 0.621977 -126.21 -88.9932 124.769
RightUpLeg  5.77974 -2.39226 -2.37529
RightLeg  -0.151809 -18.1983 -0.0613106
RightFoot  -2.26912 -0.323241 3.87739
RightToes  -3.13006e-008 1.75238e-005 3.56266e-009
Spine  -6.15281 -2.94266 -6.10893
Spine1  13.6109 -3.93428 4.58193
HEad  -17.7592 -14.0663 -5.35973
LeftShoulder1  1.82181 -2.7055 -23.0622
LeftArm  -34.8852 12.4722 -51.8617
LeftForeArm  111.579 -66.6129 -151
LeftHand  -0.0947203 -0.751943 1.88446
RightShoulder  2.29874 4.04665 24.3376
RightArm  -35.8343 -14.2292 32.2981
RightForeArm  104.922 78.2492 115.905
RightHand  -0.142864 7.69573 -1.624
LeftUpLeg  6.08534 1.17509 1.52028
LeftLeg  -2.48737 13.2617 -1.10483
LeftFoot  -1.21525 0.282204 -3.12956
LeftToes  4.76866e-008 1.46233e-008 1.30548e-009
198
root  -3.25497 40.9062 0.696028 -143.967 -88.8821 142.694
RightUpLeg  5.50906 -2.35901 -2.38556
RightLeg  -0.237799 -17.9048 0.026347
RightFoot  -2.05607 -0.328171 3.86531
RightToes  -3.13006e-008 1.75238e-005 3.56266e-009
Spine  -5.44164 -3.00839 -5.52972
Spine1  12.6484 -3.91854 4.09996
HEad  -17.4381 -19.4725 -7.01806
LeftShoulder1  1.88075 -2.90379 -23.0753
LeftArm  -36.0411 13.832 -50.8776
LeftForeArm  111.773 -66.1025 -151.692
LeftHand  -0.0796832 -0.9151 1.56805
RightShoulder  2.05579 3.56586 22.9137
RightArm  -45.0202 -12.1373 30.14
RightForeArm  95.1499 78.3693 111.567
RightHand  -0.22699 7.70486 -2.38192
LeftUpLeg  5.81639 1.20095 1.54829
LeftLeg  -2.38756 13.5571 -1.12423
LeftFoot  -1.22584 0.280592 -3.11122
LeftToes  4.76866e-008 1.46233e-008 1.30548e-009
199
root  -3.22879 40.9117 0.761357 -141.399 -89.0016 140.47
RightUpLeg  5.16438 -2.30591 -2.40741
RightLeg  -0.391266 -18.0907 0.0794379
RightFoot  -1.87374 -0.346714 4.0287
RightToes  -3.13006e-008 1.75238e-005 3.56266e-009
Spine  -5.35091 -3.39359 -4.61365
Spine1  12.468 -3.97384 2.63571
HEad  -17.3427 -24.483 -7.52992
LeftShoulder1  1.8112 -2.73522 -22.7352
LeftArm  -37.0418 14.5577 -50.0859
LeftForeArm  111.964 -65.7692 -152.131
LeftHand  -0.0840191 -0.862411 1.65483
RightShoulder  1.83679 3.01711 21.925
RightArm  -53.7214 -10.4989 27.0455
RightForeArm  85.9669 78.2025 109.481
RightHand  -0.329327 7.15575 -3.39779
LeftUpLeg  5.38199 1.07478 1.45534
LeftLeg  -2.39293 13.5881 -1.1035
LeftFoot  -1.16525 0.263917 -2.85756
LeftToes  4.76866e-008 1.46233e-008 1.30548e-009
200
root  -3.20538 40.9146 0.811777 -136.08 -89.0767 135.575
RightUpLeg  4.76438 -2.22913 -2.45346
RightLeg  -0.577049 -18.3567 0.117758
RightFoot  -1.72714 -0.344167 3.96162
RightToes  -3.13006e-008 1.75238e-005 3.56266e-009
Spine  -4.99356 -3.76684 -3.48898
Spine1  11.5966 -3.92038 0.800918
HEad  -16.4683 -28.4983 -8.64353
LeftShoulder1  1.78793 -2.68584 -22.5828
LeftArm  -37.7118 15.7802 -49.0958
LeftForeArm  112.086 -65.4505 -152.537
LeftHand  -0.0968099 -0.959474 1.87196
RightShoulder  1.58191 2.37851 20.6028
RightArm  -61.846 -10.1646 24.2433
RightForeArm  79.6845 78.0471 108.502
RightHand  -0.37951 7.08996 -3.9103
LeftUpLeg  4.85338 0.96474 1.36065
LeftLeg  -2.37734 13.5954 -1.13712
LeftFoot  -1.10548 0.265981 -2.89479
LeftToes  4.76866e-008 1.46233e-008 1.30548e-009
201
root  -3.19119 40.9198 0.842391 -127.96 -89.2641 127.769
RightUpLeg  4.60871 -2.08583 -2.35645
RightLeg  -0.991295 -18.7584 0.225128
RightFoot  -1.52693 -0.348384 4.01428
RightToes  -3.13006e-008 1.75238e-005 3.56266e-009
Spine  -5.03088 -4.1441 -2.2498
Spine1  11.3876 -3.84655 -1.22296
HEad  -15.713 -31.0643 -9.15197
LeftShoulder1  1.8478 -2.88701 -22.6106
LeftArm  -38.9544 17.0005 -48.6453
LeftForeArm  112.164 -65.2817 -152.748
LeftHand  -0.0834733 -0.654172 1.67288
RightShoulder  1.51667 2.29925 19.7688
RightArm  -70.3848 -10.4795 21.1378
RightForeArm  74.54 77.9754 107.224
RightHand  -0.61779 7.9723 -5.59165
LeftUpLeg  4.41392 1.00861 1.44078
LeftLeg  -2.27136 13.3392 -1.18086
LeftFoot  -1.11936 0.260552 -2.81504
LeftToes  4.76866e-008 1.46233e-008 1.30548e-009
